<svg width="22" height="22" viewBox="0 0 22 22" fill="none" xmlns="http://www.w3.org/2000/svg">
<path d="M11 21C16.5228 21 21 16.5228 21 11C21 5.47715 16.5228 1 11 1C5.47715 1 1 5.47715 1 11C1 16.5228 5.47715 21 11 21Z" fill="white" fill-opacity="0.5" stroke="black" stroke-width="1.5" stroke-linecap="round" stroke-linejoin="round"/>
<path d="M11 16.2106C11.5 16.2106 11.9053 15.8053 11.9053 15.3053C11.9053 14.8053 11.5 14.4 11 14.4C10.5 14.4 10.0947 14.8053 10.0947 15.3053C10.0947 15.8053 10.5 16.2106 11 16.2106Z" fill="black"/>
<path d="M8.51579 8.03157C8.55384 7.40701 8.83537 6.82229 9.29988 6.40305C9.76439 5.98381 10.3748 5.7635 11 5.78947C11.3146 5.74991 11.634 5.77882 11.9364 5.87422C12.2388 5.96963 12.517 6.12927 12.752 6.34222C12.9869 6.55516 13.173 6.81637 13.2976 7.10796C13.4222 7.39954 13.4822 7.71461 13.4737 8.03157C13.4702 8.4847 13.3427 8.92823 13.1053 9.31416C12.8678 9.70008 12.5292 10.0137 12.1263 10.221C11.7262 10.4736 11.4109 10.8403 11.2211 11.2737C11.0769 11.7265 11.0024 12.1985 11 12.6737" stroke="black" stroke-width="1.5" stroke-linecap="round" stroke-linejoin="round"/>
</svg>
